# xmcd CD database file
# 
# Track frame offsets:
# 	150
# 	11257
# 	24107
# 	37545
# 	48865
# 	59082
# 	70852
# 	81982
# 	91920
# 	100947
# 	112190
# 	124247
# 	132795
# 	142102
# 
# Disc length: 2036 seconds
# 
# Submitted via: Nero 6, 3, 1, 17
# 
# Revision: 0
# Processed by: cddbd v1.5.1PL0 Copyright (c) Steve Scherf et al.
#
DISCID=b407f20e
DTITLE=Buck Owens And His Buckeroos - Together Again - My Heart Skips A Beat
DYEAR=1900
DGENRE=
TTITLE0=My Heart Skips A Beat
TTITLE1=Close Up The Honky Tonks
TTITLE2=I Don't Hear You
TTITLE3=Save The Last Dance For Me
TTITLE4=Over And Over Again
TTITLE5=Truck Drivin' Man
TTITLE6=Together Again
TTITLE7=A-11
TTITLE8=Ain't It Amazin' Gracie
TTITLE9=Getting Used To Losing You
TTITLE10=Storm Of Love
TTITLE11=Hello Trouble
TTITLE12=Love's Gonna Live Here
TTITLE13=Act Naturally
EXTD=
EXTT0=
EXTT1=
EXTT2=
EXTT3=
EXTT4=
EXTT5=
EXTT6=
EXTT7=
EXTT8=
EXTT9=
EXTT10=
EXTT11=
EXTT12=
EXTT13=
PLAYORDER=
